# Blender 4.4.1
# www.blender.org
mtllib Hex.mtl
o Cylinder
v 0.000000 -0.500000 0.000000
v 0.000000 0.500000 0.000000
v 0.000000 -0.500000 -1.000000
v 0.000000 0.500000 -1.000000
v 0.866025 -0.500000 -0.500000
v 0.866025 0.500000 -0.500000
v 0.866025 -0.500000 0.500000
v 0.866025 0.500000 0.500000
v 0.000000 -0.500000 1.000000
v 0.000000 0.500000 1.000000
v -0.866025 -0.500000 0.500000
v -0.866025 0.500000 0.500000
v -0.866025 -0.500000 -0.500000
v -0.866025 0.500000 -0.500000
vn -0.0000 -1.0000 -0.0000
vn -0.0000 1.0000 -0.0000
vn 0.5000 -0.0000 -0.8660
vn 1.0000 -0.0000 -0.0000
vn 0.5000 -0.0000 0.8660
vn -0.5000 -0.0000 0.8660
vn -1.0000 -0.0000 -0.0000
vn -0.5000 -0.0000 -0.8660
vt 0.750000 0.250000
vt 0.750000 0.490000
vt 0.957846 0.370000
vt 0.250000 0.250000
vt 0.457846 0.370000
vt 0.250000 0.490000
vt 1.000000 1.000000
vt 0.833333 0.500000
vt 1.000000 0.500000
vt 0.957846 0.130000
vt 0.457846 0.130000
vt 0.833333 1.000000
vt 0.666667 0.500000
vt 0.750000 0.010000
vt 0.250000 0.010000
vt 0.666667 1.000000
vt 0.500000 0.500000
vt 0.542154 0.130000
vt 0.042154 0.130000
vt 0.500000 1.000000
vt 0.333333 0.500000
vt 0.542154 0.370000
vt 0.042154 0.370000
vt 0.333333 1.000000
vt 0.166667 0.500000
vt 0.166667 1.000000
vt -0.000000 0.500000
vt -0.000000 1.000000
s 0
f 1/1/1 3/2/1 5/3/1
f 2/4/2 6/5/2 4/6/2
f 4/7/3 5/8/3 3/9/3
f 1/1/1 5/3/1 7/10/1
f 2/4/2 8/11/2 6/5/2
f 6/12/4 7/13/4 5/8/4
f 1/1/1 7/10/1 9/14/1
f 2/4/2 10/15/2 8/11/2
f 8/16/5 9/17/5 7/13/5
f 1/1/1 9/14/1 11/18/1
f 2/4/2 12/19/2 10/15/2
f 10/20/6 11/21/6 9/17/6
f 1/1/1 11/18/1 13/22/1
f 2/4/2 14/23/2 12/19/2
f 12/24/7 13/25/7 11/21/7
f 1/1/1 13/22/1 3/2/1
f 2/4/2 4/6/2 14/23/2
f 14/26/8 3/27/8 13/25/8
f 4/7/3 6/12/3 5/8/3
f 6/12/4 8/16/4 7/13/4
f 8/16/5 10/20/5 9/17/5
f 10/20/6 12/24/6 11/21/6
f 12/24/7 14/26/7 13/25/7
f 14/26/8 4/28/8 3/27/8
